<?xml version="1.0" encoding="UTF-8"?>
<svg id="Layer_1" xmlns="http://www.w3.org/2000/svg" version="1.1" viewBox="0 0 140 140">
  <!-- Generator: Adobe Illustrator 30.0.0, SVG Export Plug-In . SVG Version: 2.1.1 Build 123)  -->
  <defs>
    <style>
      .st0 {
        stroke: #f19800;
      }

      .st0, .st1, .st2 {
        fill: none;
        stroke-miterlimit: 10;
        stroke-width: 3px;
      }

      .st1 {
        stroke: #738ac8;
      }

      .st3 {
        fill: #fff;
      }

      .st4 {
        fill: #e2e2e2;
      }

      .st5 {
        fill: #738ac8;
      }

      .st2 {
        stroke: #e53a33;
      }

      .st6 {
        fill: #ef7f85;
      }

      .st7 {
        fill: #f19800;
      }
    </style>
  </defs>
  <circle class="st4" cx="70" cy="70" r="64.8"/>
  <g>
    <path class="st1" d="M100.07,86.03c-15.84,0-28.68-7.96-28.68-17.77s12.84-17.77,28.68-17.77"/>
    <g>
      <line class="st0" x1="69.38" y1="27.01" x2="69.38" y2="111.08"/>
      <polygon class="st7" points="69.38 128.03 59.62 104.15 69.38 109.82 79.13 104.15 69.38 128.03"/>
    </g>
    <polyline class="st2" points="63.88 50.27 34.36 50.27 34.36 85.02 63.88 85.02"/>
    <rect class="st6" x="20.03" y="60.43" width="28.67" height="14.42"/>
    <g>
      <circle class="st3" cx="69.38" cy="19.51" r="6"/>
      <path class="st7" d="M69.38,15.01c2.48,0,4.5,2.02,4.5,4.5s-2.02,4.5-4.5,4.5-4.5-2.02-4.5-4.5,2.02-4.5,4.5-4.5M69.38,12.01c-4.14,0-7.5,3.36-7.5,7.5s3.36,7.5,7.5,7.5,7.5-3.36,7.5-7.5-3.36-7.5-7.5-7.5h0Z"/>
    </g>
    <g>
      <circle class="st3" cx="69.38" cy="50.49" r="6"/>
      <path class="st7" d="M69.38,45.99c2.48,0,4.5,2.02,4.5,4.5s-2.02,4.5-4.5,4.5-4.5-2.02-4.5-4.5,2.02-4.5,4.5-4.5M69.38,42.99c-4.14,0-7.5,3.36-7.5,7.5s3.36,7.5,7.5,7.5,7.5-3.36,7.5-7.5-3.36-7.5-7.5-7.5h0Z"/>
    </g>
    <g>
      <circle class="st3" cx="69.38" cy="85.02" r="6"/>
      <path class="st7" d="M69.38,80.52c2.48,0,4.5,2.02,4.5,4.5s-2.02,4.5-4.5,4.5-4.5-2.02-4.5-4.5,2.02-4.5,4.5-4.5M69.38,77.52c-4.14,0-7.5,3.36-7.5,7.5s3.36,7.5,7.5,7.5,7.5-3.36,7.5-7.5-3.36-7.5-7.5-7.5h0Z"/>
    </g>
    <g>
      <path class="st3" d="M105.15,55.07c-2.53,0-4.58-2.06-4.58-4.58s2.06-4.58,4.58-4.58,4.58,2.06,4.58,4.58-2.06,4.58-4.58,4.58Z"/>
      <path class="st5" d="M105.15,47.41c1.7,0,3.08,1.38,3.08,3.08s-1.38,3.08-3.08,3.08-3.08-1.38-3.08-3.08,1.38-3.08,3.08-3.08M105.15,44.41c-3.36,0-6.08,2.72-6.08,6.08s2.72,6.08,6.08,6.08,6.08-2.72,6.08-6.08-2.72-6.08-6.08-6.08h0Z"/>
    </g>
    <g>
      <path class="st3" d="M105.15,90.61c-2.53,0-4.58-2.06-4.58-4.58s2.06-4.58,4.58-4.58,4.58,2.06,4.58,4.58-2.06,4.58-4.58,4.58Z"/>
      <path class="st5" d="M105.15,82.95c1.7,0,3.08,1.38,3.08,3.08s-1.38,3.08-3.08,3.08-3.08-1.38-3.08-3.08,1.38-3.08,3.08-3.08M105.15,79.95c-3.36,0-6.08,2.72-6.08,6.08s2.72,6.08,6.08,6.08,6.08-2.72,6.08-6.08-2.72-6.08-6.08-6.08h0Z"/>
    </g>
  </g>
</svg>